<?xml version="1.0" encoding="utf-8"?>
<!-- Generator: Adobe Illustrator 17.0.0, SVG Export Plug-In . SVG Version: 6.00 Build 0)  -->
<!DOCTYPE svg PUBLIC "-//W3C//DTD SVG 1.1//EN" "http://www.w3.org/Graphics/SVG/1.1/DTD/svg11.dtd">
<svg version="1.1" id="Calque_1" xmlns="http://www.w3.org/2000/svg" xmlns:xlink="http://www.w3.org/1999/xlink" x="0px" y="0px"
	 width="78.364px" height="50.637px" viewBox="0 0 78.364 50.637" enable-background="new 0 0 78.364 50.637" xml:space="preserve">
<g>
	<g>
		<g>
			<path d="M64.264,42.755v1.459h-3.041v6.421h-2.05v-6.421h-3.04v-1.459H64.264z"/>
			<path d="M57.009,49.176v1.461h-6.515v-7.881h2.049v6.42H57.009z"/>
			<path d="M17.546,49.176v1.461h-6.844v-7.881h6.715v1.46h-4.665v1.732h4.263v1.413h-4.263v1.815H17.546z"/>
			<g>
				<path d="M7.03,47.709c0.878-0.476,1.42-1.413,1.42-2.396c0-0.82-0.239-1.456-0.74-1.874c-0.583-0.483-1.381-0.683-2.729-0.683
					H0.28l-0.084,0.475c0,0,0.084,0.142,0.181,0.312c0.146,0.251,0.134,0.325,0.134,0.493v6.601h2.051v-2.523c0,0,1.798,0,2.547,0
					l1.367,2.523h2.257L7.03,47.709z M5.993,46.43c-0.158,0.154-0.345,0.229-0.636,0.229H2.561v-2.402H4.77
					c0.657,0,1.009,0.074,1.245,0.266c0.232,0.185,0.344,0.469,0.344,0.886C6.36,45.84,6.245,46.187,5.993,46.43z"/>
			</g>
		</g>
		<path d="M26.129,42.754v5.228c-0.478-0.602-0.98-1.182-1.828-2.115c-0.69-0.758-2.13-2.313-2.869-3.111h-1.979l-0.083,0.475
			c0,0,0.085,0.142,0.181,0.312c0.11,0.187,0.132,0.276,0.135,0.378c0,0.008-0.001,6.716-0.001,6.716l1.842-0.006v-5.22
			c0.368,0.49,1.022,1.243,1.459,1.717c0.87,0.94,2.183,2.407,3.205,3.51h1.77v-7.881L26.129,42.754z"/>
		<path d="M46.201,42.755v4.819c0,0.538-0.107,0.857-0.37,1.103c-0.332,0.309-0.88,0.456-1.671,0.456
			c-0.803,0-1.366-0.148-1.696-0.456c-0.261-0.245-0.369-0.566-0.369-1.103v-4.819h-2.282l-0.083,0.475c0,0,0.085,0.142,0.18,0.312
			c0.104,0.181,0.128,0.269,0.133,0.367c0,0.012,0.002,3.739,0.002,3.739c0,2.06,1.396,3.109,4.088,3.109h0.057
			c2.694,0,4.017-1.02,4.017-3.109v-4.893H46.201z"/>
		<path d="M35.483,42.755h-2.562c-0.777,1.604-2.128,4.565-3.393,7.881h2.057c0.164-0.448,0.338-0.906,0.513-1.365h4.207
			c0.177,0.459,0.35,0.916,0.513,1.365h2.058C37.611,47.32,36.259,44.36,35.483,42.755z M32.687,47.786
			c0.539-1.343,1.079-2.613,1.515-3.597c0.435,0.985,0.978,2.255,1.516,3.597H32.687z"/>
	</g>
	<rect x="71.4" fill="#FFCE00" width="6.964" height="50.636"/>
	<g>
		<linearGradient id="SVGID_1_" gradientUnits="userSpaceOnUse" x1="30.258" y1="34.9181" x2="30.258" y2="0.6752">
			<stop  offset="0" style="stop-color:#E5E5E5"/>
			<stop  offset="0.6866" style="stop-color:#FFFFFF"/>
			<stop  offset="1" style="stop-color:#919191"/>
		</linearGradient>
		<path fill="url(#SVGID_1_)" d="M43.636,17.128c-0.606-1.282-2.029-4.059-3.47-6.679c-2.032-3.693-5.212-8.953-5.54-9.404
			c-0.088-0.121-0.16-0.203-0.233-0.257c-0.041-0.03-0.081-0.05-0.125-0.064c-0.081-0.025-0.262-0.01-0.394,0.004
			c-0.071,0.007-0.161,0.006-0.229,0.003c-0.679-0.029-2.043-0.057-3.387-0.057c-1.651,0-3.641,0.05-3.899,0.076
			c-0.134,0.013-0.184,0.038-0.235,0.063c-0.066,0.037-0.133,0.073-0.24,0.232c-0.31,0.462-3.502,5.71-5.534,9.404
			c-1.441,2.62-2.864,5.397-3.47,6.679c-0.161,0.34-0.185,0.564-0.185,0.669c0,0.184,0.062,0.409,0.185,0.668
			c0.606,1.282,2.029,4.059,3.47,6.679c2.032,3.693,5.212,8.953,5.54,9.404c0.051,0.07,0.096,0.127,0.14,0.173
			c0.074,0.078,0.141,0.124,0.218,0.148c0.081,0.025,0.241,0.01,0.374-0.004c0.071-0.008,0.161-0.005,0.229-0.003
			c0.819,0.028,2.076,0.058,3.407,0.057c1.651-0.001,3.581-0.043,3.871-0.076l0.046-0.005c0.111-0.012,0.173-0.029,0.207-0.045
			c0.066-0.028,0.123-0.081,0.259-0.269c0.327-0.45,3.493-5.684,5.525-9.378c1.441-2.62,2.864-5.397,3.47-6.679
			c0.161-0.34,0.185-0.606,0.185-0.711C43.821,17.57,43.758,17.387,43.636,17.128z M34.257,18.49
			c-1.36,3.049-2.325,4.949-3.757,7.703c-0.083,0.159-0.15,0.262-0.244,0.264c-0.095,0-0.16-0.105-0.243-0.265
			c-1.432-2.753-2.398-4.654-3.757-7.703c-0.116-0.261-0.198-0.453-0.198-0.698c0.003-0.238,0.086-0.433,0.2-0.688
			c1.36-3.049,2.325-4.949,3.757-7.703c0.083-0.159,0.148-0.262,0.242-0.264c0,0,0,0,0,0c0,0,0,0,0,0c0.001,0,0.002,0,0.003,0
			c0.095,0,0.161,0.104,0.245,0.264c1.432,2.753,2.398,4.654,3.757,7.703c0.116,0.261,0.196,0.453,0.196,0.698
			C34.456,18.047,34.371,18.235,34.257,18.49z"/>
		<defs>
			<filter id="Adobe_OpacityMaskFilter" filterUnits="userSpaceOnUse" x="16.695" y="0.675" width="27.125" height="34.243">
				
					<feColorMatrix  type="matrix" values="-1 0 0 0 1  0 -1 0 0 1  0 0 -1 0 1  0 0 0 1 0" color-interpolation-filters="sRGB" result="source"/>
				<feFlood  style="flood-color:white;flood-opacity:1" result="back"/>
				<feBlend  in="source" in2="back" mode="normal"/>
			</filter>
		</defs>
		<mask maskUnits="userSpaceOnUse" x="16.695" y="0.675" width="27.125" height="34.243" id="SVGID_2_">
			<g filter="url(#Adobe_OpacityMaskFilter)">
				<linearGradient id="SVGID_3_" gradientUnits="userSpaceOnUse" x1="29.8278" y1="37.3605" x2="29.8278" y2="18.0597">
					<stop  offset="0.8545" style="stop-color:#FFFFFF"/>
					<stop  offset="1" style="stop-color:#000000"/>
				</linearGradient>
				<rect x="12.409" y="18.06" fill="url(#SVGID_3_)" width="34.838" height="19.301"/>
			</g>
		</mask>
		
			<radialGradient id="SVGID_4_" cx="30.426" cy="9.5065" r="17.1374" gradientTransform="matrix(0.9963 0 0 1 -1.8254 0)" gradientUnits="userSpaceOnUse">
			<stop  offset="0.401" style="stop-color:#FFFFFF"/>
			<stop  offset="1" style="stop-color:#919191"/>
		</radialGradient>
		<path mask="url(#SVGID_2_)" fill="url(#SVGID_4_)" d="M43.636,17.128c-0.606-1.282-2.029-4.059-3.47-6.679
			c-2.032-3.693-5.212-8.953-5.54-9.404c-0.088-0.121-0.16-0.203-0.233-0.257c-0.041-0.03-0.081-0.05-0.125-0.064
			c-0.081-0.025-0.262-0.01-0.394,0.004c-0.071,0.007-0.161,0.006-0.229,0.003c-0.679-0.029-2.043-0.057-3.387-0.057
			c-1.651,0-3.641,0.05-3.899,0.076c-0.134,0.013-0.184,0.038-0.235,0.063c-0.066,0.037-0.133,0.073-0.24,0.232
			c-0.31,0.462-3.502,5.71-5.534,9.404c-1.441,2.62-2.864,5.397-3.47,6.679c-0.161,0.34-0.185,0.564-0.185,0.669
			c0,0.184,0.062,0.409,0.185,0.668c0.606,1.282,2.029,4.059,3.47,6.679c2.032,3.693,5.212,8.953,5.54,9.404
			c0.051,0.07,0.096,0.127,0.14,0.173c0.074,0.078,0.141,0.124,0.218,0.148c0.081,0.025,0.241,0.01,0.374-0.004
			c0.071-0.008,0.161-0.005,0.229-0.003c0.819,0.028,2.076,0.058,3.407,0.057c1.651-0.001,3.581-0.043,3.871-0.076l0.046-0.005
			c0.111-0.012,0.173-0.029,0.207-0.045c0.066-0.028,0.123-0.081,0.259-0.269c0.327-0.45,3.493-5.684,5.525-9.378
			c1.441-2.62,2.864-5.397,3.47-6.679c0.161-0.34,0.185-0.606,0.185-0.711C43.821,17.57,43.758,17.387,43.636,17.128z M34.257,18.49
			c-1.36,3.049-2.325,4.949-3.757,7.703c-0.083,0.159-0.15,0.262-0.244,0.264c-0.095,0-0.16-0.105-0.243-0.265
			c-1.432-2.753-2.398-4.654-3.757-7.703c-0.116-0.261-0.198-0.453-0.198-0.698c0.003-0.238,0.086-0.433,0.2-0.688
			c1.36-3.049,2.325-4.949,3.757-7.703c0.083-0.159,0.148-0.262,0.242-0.264c0,0,0,0,0,0c0,0,0,0,0,0c0.001,0,0.002,0,0.003,0
			c0.095,0,0.161,0.104,0.245,0.264c1.432,2.753,2.398,4.654,3.757,7.703c0.116,0.261,0.196,0.453,0.196,0.698
			C34.456,18.047,34.371,18.235,34.257,18.49z"/>
		<g>
			<linearGradient id="SVGID_5_" gradientUnits="userSpaceOnUse" x1="23.4872" y1="34.7501" x2="23.4872" y2="17.8817">
				<stop  offset="0.0104" style="stop-color:#E5E5E5"/>
				<stop  offset="0.3385" style="stop-color:#A7A7A7"/>
				<stop  offset="0.6941" style="stop-color:#303030"/>
				<stop  offset="0.8452" style="stop-color:#131313"/>
				<stop  offset="0.948" style="stop-color:#090909"/>
				<stop  offset="0.9619" style="stop-color:#0C0C0C"/>
				<stop  offset="0.972" style="stop-color:#151515"/>
				<stop  offset="0.981" style="stop-color:#252525"/>
				<stop  offset="0.9892" style="stop-color:#3C3C3C"/>
				<stop  offset="0.997" style="stop-color:#595959"/>
				<stop  offset="1" style="stop-color:#666666"/>
			</linearGradient>
			<path fill="url(#SVGID_5_)" d="M25.217,18.906c0,0-0.4-0.747-0.415-1.042c-0.002-0.039-0.003-0.052,0-0.09
				c0.007-0.075-0.022-0.048-0.088,0.014c-0.117,0.11-0.323,0.219-0.826,0.219c-0.446,0-4.238-0.005-6.046-0.005
				c-0.265,0-0.62-0.02-0.62,0.399c0,0.247,0.214,0.743,0.652,1.602c2.398,4.691,5.063,9.377,7.919,13.957
				c0,0,0.436,0.702,0.481,0.758c0.045,0.056,0.098,0.08,0.205,0.079c0,0,1.811-3.317,3.275-6.934
				C28.125,24.86,26.622,21.891,25.217,18.906z"/>
			<linearGradient id="SVGID_6_" gradientUnits="userSpaceOnUse" x1="26.4794" y1="34.7969" x2="26.4794" y2="34.7968">
				<stop  offset="0.0104" style="stop-color:#E5E5E5"/>
				<stop  offset="0.3385" style="stop-color:#A7A7A7"/>
				<stop  offset="0.6941" style="stop-color:#303030"/>
				<stop  offset="0.8452" style="stop-color:#131313"/>
				<stop  offset="0.948" style="stop-color:#090909"/>
				<stop  offset="0.9619" style="stop-color:#0C0C0C"/>
				<stop  offset="0.972" style="stop-color:#151515"/>
				<stop  offset="0.981" style="stop-color:#252525"/>
				<stop  offset="0.9892" style="stop-color:#3C3C3C"/>
				<stop  offset="0.997" style="stop-color:#595959"/>
				<stop  offset="1" style="stop-color:#666666"/>
			</linearGradient>
			<path fill="url(#SVGID_6_)" d="M26.478,34.797c0,0,0.001,0,0.002,0C26.48,34.797,26.479,34.797,26.478,34.797z"/>
		</g>
		<linearGradient id="SVGID_7_" gradientUnits="userSpaceOnUse" x1="35.1138" y1="34.7494" x2="35.1138" y2="17.8662">
			<stop  offset="0.0104" style="stop-color:#E5E5E5"/>
			<stop  offset="0.3385" style="stop-color:#A7A7A7"/>
			<stop  offset="0.6941" style="stop-color:#303030"/>
			<stop  offset="0.8452" style="stop-color:#131313"/>
			<stop  offset="0.9538" style="stop-color:#090909"/>
			<stop  offset="0.9661" style="stop-color:#0C0C0C"/>
			<stop  offset="0.9751" style="stop-color:#151515"/>
			<stop  offset="0.9831" style="stop-color:#252525"/>
			<stop  offset="0.9904" style="stop-color:#3C3C3C"/>
			<stop  offset="0.9973" style="stop-color:#595959"/>
			<stop  offset="1" style="stop-color:#666666"/>
		</linearGradient>
		<path fill="url(#SVGID_7_)" d="M43.485,17.84c-0.065,0.067-0.248,0.165-0.656,0.165c-0.145,0-3.514,0-4.98,0
			c-2.284,0-2.052-0.061-2.645,1.147c-0.264,0.538-0.537,1.17-0.814,1.689c-1.994,4.169-6.859,12.564-7.516,13.605
			c-0.247,0.392-0.283,0.412-0.103,0.412c0,0,1.651,0.061,3.489,0.061c2.87,0,3.896-0.079,3.896-0.079
			c1.664-2.59,5.633-9.157,8.467-14.845c0.652-1.31,0.98-1.88,0.948-2.16C43.563,17.779,43.513,17.811,43.485,17.84z"/>
		<linearGradient id="SVGID_8_" gradientUnits="userSpaceOnUse" x1="29.5218" y1="17.6839" x2="29.5218" y2="0.6904">
			<stop  offset="0" style="stop-color:#303030"/>
			<stop  offset="0.0109" style="stop-color:#222222"/>
			<stop  offset="0.0247" style="stop-color:#171717"/>
			<stop  offset="0.04" style="stop-color:#131313"/>
			<stop  offset="0.1396" style="stop-color:#0E0E0E"/>
			<stop  offset="0.2521" style="stop-color:#000000"/>
		</linearGradient>
		<path fill="url(#SVGID_8_)" d="M34.022,0.798c-0.123-0.006-0.211,0.088-0.38,0.349c-1.408,2.181-6.269,11.339-8.255,15.61
			c-0.243,0.523-0.367,0.779-0.367,1.032l1.036,0.002c0-0.002-0.001,0.002,0,0c0.003-0.238,0.086-0.433,0.2-0.688
			c1.36-3.049,2.325-4.949,3.757-7.703c0.083-0.159,0.148-0.262,0.242-0.264c0,0,0,0,0,0l0.402-1.171
			C32.06,4.472,34.022,0.798,34.022,0.798z"/>
		<linearGradient id="SVGID_9_" gradientUnits="userSpaceOnUse" x1="32.8722" y1="17.8017" x2="32.8722" y2="7.9644">
			<stop  offset="0" style="stop-color:#747474"/>
			<stop  offset="0.1411" style="stop-color:#6F6F6F"/>
			<stop  offset="0.3157" style="stop-color:#5F5F5F"/>
			<stop  offset="0.5081" style="stop-color:#464646"/>
			<stop  offset="0.7118" style="stop-color:#242424"/>
			<stop  offset="0.7954" style="stop-color:#131313"/>
			<stop  offset="0.9207" style="stop-color:#000000"/>
		</linearGradient>
		<path fill="url(#SVGID_9_)" d="M35.488,17.801c0-0.253-0.118-0.503-0.361-1.02c-1.372-2.914-2.807-5.755-4.467-8.816l-0.403,1.172
			c0,0,0,0,0,0c0.001,0,0.002,0,0.003,0c0.095,0,0.161,0.104,0.245,0.264c1.432,2.753,2.398,4.654,3.757,7.703
			c0.116,0.261,0.196,0.453,0.196,0.698c0,0.003,0-0.003,0,0H35.488z"/>
		<linearGradient id="SVGID_10_" gradientUnits="userSpaceOnUse" x1="27.6388" y1="27.6495" x2="27.6388" y2="17.8072">
			<stop  offset="0.3571" style="stop-color:#BFBFBF"/>
			<stop  offset="0.4744" style="stop-color:#BABABA"/>
			<stop  offset="0.6097" style="stop-color:#ACACAC"/>
			<stop  offset="0.7539" style="stop-color:#959595"/>
			<stop  offset="0.9034" style="stop-color:#757575"/>
			<stop  offset="0.9631" style="stop-color:#666666"/>
			<stop  offset="1" style="stop-color:#303030"/>
		</linearGradient>
		<path fill="url(#SVGID_10_)" d="M30.256,26.457C30.256,26.457,30.257,26.457,30.256,26.457c-0.095,0-0.16-0.105-0.243-0.265
			c-1.432-2.753-2.398-4.654-3.757-7.703c-0.116-0.261-0.198-0.453-0.198-0.698c0-0.001,0,0.001,0,0l-1.036-0.002
			c-0.001,0.255,0.117,0.512,0.362,1.032v0c1.372,2.915,2.802,5.748,4.463,8.81L30.256,26.457z"/>
		<linearGradient id="SVGID_11_" gradientUnits="userSpaceOnUse" x1="31.5035" y1="24.3128" x2="22.5505" y2="20.2744">
			<stop  offset="0.0132" style="stop-color:#F1F1F1;stop-opacity:0.8"/>
			<stop  offset="0.1096" style="stop-color:#EDEDED;stop-opacity:0"/>
		</linearGradient>
		<path fill="url(#SVGID_11_)" d="M30.256,26.457C30.256,26.457,30.257,26.457,30.256,26.457c-0.095,0-0.16-0.105-0.243-0.265
			c-1.432-2.753-2.398-4.654-3.757-7.703c-0.116-0.261-0.198-0.453-0.198-0.698c0-0.001,0,0.001,0-0.002l-1.036-0.002
			c-0.001,0.256,0.117,0.514,0.362,1.034v0c1.372,2.915,2.802,5.748,4.463,8.81L30.256,26.457z"/>
		<linearGradient id="SVGID_12_" gradientUnits="userSpaceOnUse" x1="30.9833" y1="34.6894" x2="30.9833" y2="17.6927">
			<stop  offset="0" style="stop-color:#FFFFFF"/>
			<stop  offset="0.2163" style="stop-color:#F9F9F9"/>
			<stop  offset="0.5116" style="stop-color:#E7E7E7"/>
			<stop  offset="0.8508" style="stop-color:#CBCBCB"/>
			<stop  offset="0.9693" style="stop-color:#BFBFBF"/>
			<stop  offset="0.9913" style="stop-color:#747474"/>
		</linearGradient>
		<path fill="url(#SVGID_12_)" d="M26.478,34.797c0.114,0.005,0.25-0.133,0.408-0.374c0.042-0.066,0.097-0.158,0.166-0.271
			c1.061-1.807,6.175-11.246,8.066-15.314c0.243-0.523,0.37-0.784,0.37-1.038h-1.032c0,0,0-0.001,0,0
			c0,0.246-0.085,0.434-0.199,0.689c-1.36,3.049-2.325,4.949-3.757,7.703c-0.083,0.159-0.15,0.262-0.244,0.264l-0.41,1.175
			C28.368,31.337,26.478,34.797,26.478,34.797z"/>
		<linearGradient id="SVGID_13_" gradientUnits="userSpaceOnUse" x1="21.028" y1="35.3614" x2="21.028" y2="17.7967">
			<stop  offset="0" style="stop-color:#666666"/>
			<stop  offset="0.2008" style="stop-color:#5D5D5D"/>
			<stop  offset="0.5917" style="stop-color:#505050"/>
			<stop  offset="0.9698" style="stop-color:#4C4C4C"/>
			<stop  offset="0.988" style="stop-color:#757575"/>
			<stop  offset="1" style="stop-color:#8C8C8C"/>
		</linearGradient>
		<path fill="url(#SVGID_13_)" d="M26.029,34.721c-0.044-0.046-0.089-0.103-0.14-0.173c-0.327-0.45-3.508-5.71-5.54-9.404
			c-1.441-2.62-2.864-5.397-3.47-6.679c-0.123-0.259-0.185-0.484-0.185-0.668l-0.669,0c0,0.227,0.049,0.522,0.249,0.956
			c0.472,1.024,1.794,3.633,3.489,6.716c1.85,3.366,5.21,8.963,5.585,9.475c0.154,0.211,0.286,0.338,0.412,0.418L26.029,34.721z"/>
		<linearGradient id="SVGID_14_" gradientUnits="userSpaceOnUse" x1="26.8857" y1="33.2373" x2="33.6499" y2="37.1426">
			<stop  offset="0.0193" style="stop-color:#666666"/>
			<stop  offset="0.0218" style="stop-color:#626262"/>
			<stop  offset="0.043" style="stop-color:#454545"/>
			<stop  offset="0.0641" style="stop-color:#313131"/>
			<stop  offset="0.0849" style="stop-color:#242424"/>
			<stop  offset="0.105" style="stop-color:#202020"/>
		</linearGradient>
		<path fill="url(#SVGID_14_)" d="M25.761,35.361c0.18,0.115,0.347,0.129,0.55,0.147c0.5,0.045,2.688,0.081,3.947,0.081
			c1.259,0,3.622-0.051,3.947-0.081c0.154-0.014,0.296-0.028,0.442-0.093l-0.265-0.625c-0.033,0.016-0.096,0.033-0.207,0.045
			l-0.046,0.005c-0.29,0.033-2.22,0.076-3.871,0.076c-1.331,0-2.588-0.029-3.407-0.057c-0.069-0.002-0.158-0.005-0.229,0.003
			c-0.133,0.014-0.293,0.029-0.374,0.004c-0.077-0.024-0.144-0.07-0.218-0.148L25.761,35.361z"/>
		<linearGradient id="SVGID_15_" gradientUnits="userSpaceOnUse" x1="32.0055" y1="5.0051" x2="46.9985" y2="13.2135">
			<stop  offset="0" style="stop-color:#595959"/>
			<stop  offset="1" style="stop-color:#747474"/>
		</linearGradient>
		<path fill="url(#SVGID_15_)" d="M44.489,17.796c0-0.185-0.04-0.521-0.249-0.956c-0.506-1.055-2.124-4.241-3.489-6.716
			c-1.826-3.311-5.194-8.95-5.585-9.475c-0.206-0.276-0.361-0.406-0.517-0.474l-0.257,0.613c0.073,0.053,0.145,0.135,0.233,0.257
			c0.327,0.45,3.508,5.71,5.54,9.404c1.441,2.62,2.864,5.397,3.47,6.679c0.122,0.259,0.185,0.441,0.185,0.626L44.489,17.796z"/>
		<linearGradient id="SVGID_16_" gradientUnits="userSpaceOnUse" x1="34.2422" y1="1.596" x2="26.1209" y2="-0.7328">
			<stop  offset="0.0096" style="stop-color:#595959"/>
			<stop  offset="0.0258" style="stop-color:#767676"/>
			<stop  offset="0.0444" style="stop-color:#919191"/>
			<stop  offset="0.061" style="stop-color:#A1A1A1"/>
			<stop  offset="0.0738" style="stop-color:#A7A7A7"/>
			<stop  offset="0.5011" style="stop-color:#BEBEBE"/>
			<stop  offset="1" style="stop-color:#BFBFBF"/>
		</linearGradient>
		<path fill="url(#SVGID_16_)" d="M25.859,0.179l0.265,0.635c0.051-0.025,0.101-0.049,0.235-0.063
			c0.258-0.026,2.248-0.076,3.899-0.076c1.344,0,2.708,0.029,3.387,0.057c0.069,0.003,0.158,0.005,0.229-0.003
			c0.133-0.014,0.313-0.029,0.394-0.004c0.044,0.013,0.084,0.034,0.125,0.064l0.257-0.613C34.5,0.108,34.356,0.1,34.187,0.085
			c-0.52-0.047-2.758-0.081-3.929-0.081c-1.032,0-3.427,0.027-3.988,0.083C26.097,0.104,25.968,0.133,25.859,0.179z"/>
		<linearGradient id="SVGID_17_" gradientUnits="userSpaceOnUse" x1="13.7538" y1="11.876" x2="28.2365" y2="6.3166">
			<stop  offset="0" style="stop-color:#8C8C8C"/>
			<stop  offset="0.9868" style="stop-color:#747474"/>
			<stop  offset="1" style="stop-color:#BFBFBF"/>
		</linearGradient>
		<path fill="url(#SVGID_17_)" d="M25.859,0.179c-0.211,0.09-0.337,0.243-0.533,0.498c-0.387,0.505-3.752,6.184-5.562,9.448
			c-1.274,2.298-3.298,6.279-3.49,6.716c-0.192,0.437-0.248,0.729-0.248,0.956l0.669,0c0-0.105,0.024-0.329,0.185-0.669
			c0.606-1.282,2.029-4.059,3.47-6.679c2.032-3.693,5.224-8.941,5.534-9.404c0.107-0.159,0.174-0.195,0.24-0.232L25.859,0.179z"/>
		<linearGradient id="SVGID_18_" gradientUnits="userSpaceOnUse" x1="39.4358" y1="35.4156" x2="39.4358" y2="17.7542">
			<stop  offset="0.019" style="stop-color:#202020"/>
			<stop  offset="0.2571" style="stop-color:#2C2C2C"/>
			<stop  offset="0.6194" style="stop-color:#393939"/>
			<stop  offset="0.9698" style="stop-color:#3D3D3D"/>
			<stop  offset="0.9863" style="stop-color:#5D5D5D"/>
			<stop  offset="1" style="stop-color:#747474"/>
		</linearGradient>
		<path fill="url(#SVGID_18_)" d="M34.647,35.416c0.162-0.072,0.328-0.206,0.52-0.472c0.363-0.504,3.983-6.548,5.585-9.475
			c1.602-2.927,3.303-6.3,3.489-6.716c0.231-0.518,0.249-0.771,0.249-0.957l-0.669-0.042c0,0.105-0.024,0.371-0.185,0.711
			c-0.606,1.282-2.029,4.059-3.47,6.679c-2.032,3.693-5.197,8.927-5.525,9.378c-0.136,0.188-0.193,0.241-0.259,0.269
			c0,0,0.001-0.001,0,0L34.647,35.416z"/>
		<path fill="#FFFFFF" d="M33.874,0.729c0.012-0.001,0.024-0.003,0.037-0.004c0,0-0.169,0.129-0.603,0.127
			c-0.515-0.002-1.583-0.023-2.438-0.029c-1.579-0.01-3.461,0.019-4.34,0.061c-0.466,0.022-0.494,0.073-0.792,0.391l0,0l0.147-0.23
			c0.107-0.159,0.174-0.195,0.24-0.232c0.051-0.025,0.101-0.049,0.235-0.063c0.258-0.026,2.248-0.076,3.899-0.076
			c1.344,0,2.708,0.029,3.387,0.057C33.713,0.735,33.803,0.737,33.874,0.729"/>
		<g>
			<defs>
				<path id="SVGID_19_" d="M44.493,17.796c0-0.163-0.032-0.505-0.25-0.958c-0.517-1.078-2.126-4.245-3.489-6.716
					c-0.106-0.192-0.217-0.391-0.331-0.596c-1.474-0.891-3.2-1.404-5.046-1.404c-1.839,0-3.559,0.509-5.029,1.394
					c0.127,0.241,1.13,2.155,2.046,4.032c0.859,1.76,1.609,3.446,1.692,3.633c0.112,0.252,0.179,0.419,0.179,0.62
					c0,0.196-0.067,0.347-0.177,0.598l-0.006,0.014c-0.007,0.016-0.792,1.786-1.699,3.644c-0.812,1.663-1.695,3.363-2.037,4.016
					l-0.016,0.031c-0.033,0.064-0.062,0.11-0.075,0.11c-0.013,0-0.041-0.045-0.074-0.109c-0.005-0.009-0.022-0.042-0.05-0.097
					c-0.958-1.833-1.62-3.161-2.006-3.952c-0.868-1.777-1.64-3.513-1.695-3.643l-0.008-0.018c-0.098-0.23-0.175-0.412-0.175-0.605
					c0-0.194,0.09-0.407,0.182-0.609c0.006-0.013,0.021-0.047,0.045-0.102c0.549-1.245,1.102-2.434,1.644-3.533
					c0.786-1.595,1.67-3.303,1.963-3.866c-2.704,1.749-4.495,4.797-4.495,8.266c0,5.427,4.383,9.826,9.79,9.826
					c1.742,0,3.378-0.457,4.795-1.258c0.213-0.376,0.409-0.728,0.582-1.046c1.558-2.848,3.29-6.269,3.489-6.716
					C44.463,18.263,44.493,18.004,44.493,17.796z"/>
			</defs>
			<clipPath id="SVGID_20_">
				<use xlink:href="#SVGID_19_"  overflow="visible"/>
			</clipPath>
			<g clip-path="url(#SVGID_20_)">
				<defs>
					<filter id="Adobe_OpacityMaskFilter_1_" filterUnits="userSpaceOnUse" x="25.622" y="8.123" width="19.649" height="19.649">
						<feColorMatrix  type="matrix" values="1 0 0 0 0  0 1 0 0 0  0 0 1 0 0  0 0 0 1 0"/>
					</filter>
				</defs>
				<mask maskUnits="userSpaceOnUse" x="25.622" y="8.123" width="19.649" height="19.649" id="SVGID_21_">
					<g id="XMLID_1_" filter="url(#Adobe_OpacityMaskFilter_1_)">
						<radialGradient id="SVGID_22_" cx="35.4766" cy="17.9479" r="2.9293" gradientUnits="userSpaceOnUse">
							<stop  offset="0.1664" style="stop-color:#FFFFFF"/>
							<stop  offset="0.1876" style="stop-color:#EBEBEB"/>
							<stop  offset="0.2456" style="stop-color:#BABABA"/>
							<stop  offset="0.3083" style="stop-color:#8E8E8E"/>
							<stop  offset="0.3742" style="stop-color:#686868"/>
							<stop  offset="0.4441" style="stop-color:#474747"/>
							<stop  offset="0.5193" style="stop-color:#2D2D2D"/>
							<stop  offset="0.6017" style="stop-color:#191919"/>
							<stop  offset="0.6951" style="stop-color:#0B0B0B"/>
							<stop  offset="0.8088" style="stop-color:#030303"/>
							<stop  offset="1" style="stop-color:#000000"/>
						</radialGradient>
						<circle fill="url(#SVGID_22_)" cx="35.477" cy="17.948" r="2.929"/>
					</g>
				</mask>
				<radialGradient id="SVGID_23_" cx="35.4461" cy="17.9479" r="9.8244" gradientUnits="userSpaceOnUse">
					<stop  offset="0" style="stop-color:#FFFFFF"/>
					<stop  offset="0.5897" style="stop-color:#FFFFFF;stop-opacity:0"/>
				</radialGradient>
				<circle mask="url(#SVGID_21_)" fill="url(#SVGID_23_)" cx="35.446" cy="17.948" r="9.824"/>
			</g>
		</g>
		<path d="M34.261,17.103c-0.055-0.123-0.821-1.848-1.695-3.639c-0.952-1.952-2.018-3.98-2.063-4.063
			c-0.086-0.16-0.152-0.264-0.245-0.264c-0.092,0-0.154,0.092-0.245,0.264c-0.045,0.084-1.136,2.175-2.066,4.063
			c-0.927,1.882-1.644,3.536-1.691,3.639c-0.096,0.209-0.2,0.451-0.2,0.688c0,0.238,0.09,0.443,0.198,0.698
			c0.052,0.122,0.823,1.858,1.699,3.652c0.953,1.952,2.017,3.971,2.058,4.051c0.08,0.158,0.15,0.265,0.243,0.265
			c0.093,0,0.161-0.104,0.244-0.264c0.043-0.083,1.103-2.101,2.055-4.051c0.874-1.789,1.645-3.522,1.702-3.652
			c0.119-0.271,0.199-0.449,0.199-0.689C34.456,17.561,34.378,17.367,34.261,17.103z M34.089,18.399l-0.006,0.014
			c-0.007,0.016-0.792,1.786-1.699,3.644c-0.812,1.663-1.695,3.363-2.037,4.016l-0.016,0.031c-0.033,0.064-0.062,0.11-0.075,0.11
			c-0.013,0-0.041-0.045-0.074-0.109c-0.005-0.009-0.022-0.042-0.05-0.097c-0.958-1.833-1.62-3.161-2.006-3.952
			c-0.868-1.777-1.64-3.513-1.695-3.643l-0.008-0.018c-0.098-0.23-0.175-0.412-0.175-0.605c0-0.194,0.09-0.407,0.182-0.609
			c0.006-0.013,0.021-0.047,0.045-0.102c0.549-1.245,1.102-2.434,1.644-3.533c0.955-1.938,2.054-4.041,2.064-4.059
			c0.031-0.058,0.058-0.113,0.075-0.113c0.018,0,0.046,0.055,0.077,0.114c0.009,0.017,1.084,2.058,2.059,4.057
			c0.859,1.76,1.609,3.446,1.692,3.633c0.112,0.252,0.179,0.419,0.179,0.62C34.266,17.997,34.199,18.148,34.089,18.399z"/>
		<path d="M44.244,16.839c-0.517-1.078-2.126-4.245-3.489-6.716c-1.869-3.388-5.206-8.967-5.585-9.475
			c-0.374-0.502-0.584-0.524-0.931-0.561l-0.051-0.006C33.683,0.026,31.545,0,30.258,0c-1.102,0-3.443,0.029-3.988,0.083
			c-0.513,0.051-0.653,0.209-0.946,0.591c-0.402,0.525-3.795,6.262-5.562,9.448c-1.278,2.304-3.302,6.287-3.49,6.716
			c-0.17,0.387-0.249,0.691-0.249,0.958c0,0.284,0.079,0.588,0.25,0.958c0.424,0.92,1.703,3.468,3.489,6.716
			c1.863,3.388,5.228,8.988,5.585,9.475c0.377,0.515,0.623,0.536,0.964,0.567c0.518,0.046,2.752,0.081,3.948,0.081
			c1.29,0,3.626-0.052,3.948-0.081c0.319-0.029,0.595-0.054,0.964-0.567c0.339-0.471,3.959-6.504,5.585-9.475
			c1.558-2.848,3.29-6.269,3.489-6.716c0.219-0.491,0.25-0.751,0.25-0.958C44.493,17.633,44.461,17.291,44.244,16.839z
			 M44.066,18.675c-0.199,0.445-1.926,3.858-3.482,6.702c-1.624,2.967-5.235,8.986-5.572,9.455
			c-0.317,0.441-0.519,0.459-0.824,0.487c-0.319,0.029-2.643,0.08-3.93,0.08c-1.192,0-3.417-0.034-3.93-0.08
			c-0.322-0.029-0.499-0.044-0.824-0.488c-0.355-0.485-3.712-6.071-5.572-9.454c-1.783-3.244-3.06-5.786-3.483-6.704
			c-0.158-0.343-0.232-0.622-0.232-0.876c0-0.239,0.074-0.518,0.232-0.88c0.187-0.427,2.206-4.399,3.482-6.7
			c1.765-3.182,5.147-8.903,5.547-9.424c0.28-0.366,0.38-0.473,0.811-0.516c0.539-0.054,2.87-0.082,3.969-0.082
			c1.282,0,3.411,0.025,3.909,0.08l0.052,0.006c0.324,0.034,0.472,0.05,0.795,0.484c0.377,0.506,3.705,6.07,5.571,9.453
			c1.361,2.468,2.967,5.63,3.484,6.706c0.2,0.418,0.23,0.727,0.23,0.873C44.299,17.982,44.271,18.217,44.066,18.675z"/>
	</g>
</g>
</svg>
